<?xml version="1.0" encoding="UTF-8"?>
<svg xmlns="http://www.w3.org/2000/svg" viewBox="0 0 1440 320" preserveAspectRatio="xMidYMax meet">
  <!-- St. Moritz Skyline Silhouette -->
  <!-- Mountains background layer -->
  <path fill="#1a2a4a" d="
    M0,320 L0,180
    L40,165 L80,148 L120,132 L160,118 L200,108 L240,100 L280,95 L320,92 L360,95 L400,100 L440,108 L480,118 L520,130 L560,145 L600,158 L640,168 L680,175 L720,180 L760,182 L800,185 L840,188 L880,190 L920,192 L960,194 L1000,196 L1040,198 L1080,200 L1120,202 L1160,204 L1200,206 L1240,210 L1280,214 L1320,218 L1360,222 L1400,226 L1440,230
    L1440,320 Z
  "/>
  <!-- Main town + forest silhouette -->
  <path fill="#0c1e3e" d="
    M0,320 L0,248
    L10,244 L20,240 L30,235 L40,230 L50,226 L60,222 L68,218 L74,214 L80,210
    L85,207 L90,204 L94,200 L98,197 L102,193 L106,190 L110,186 L113,182
    L116,178 L118,174 L120,170 L122,166 L124,162 L126,158 L128,154
    L130,149 L132,143 L134,136 L136,128 L138,118 L140,106 L142,92
    L144,76 L146,58 L148,40 L150,24 L152,12 L154,5 L156,3
    L158,6 L160,14 L162,28 L164,44 L166,62 L168,78 L170,92
    L172,104 L174,115 L176,124 L178,132 L180,138 L182,143
    L184,148 L186,152 L188,155 L190,158
    L192,154 L194,150 L196,147 L198,145 L200,148 L202,152 L204,156
    L206,152 L208,148 L210,145 L213,142 L216,148 L220,145 L224,141
    L228,137 L232,141 L236,145 L240,141 L244,137 L248,141
    L252,148 L256,153 L260,149 L264,156 L268,152 L272,159
    L276,154 L280,161 L285,157 L290,163 L295,159 L300,165
    L308,163 L316,161 L324,165 L332,163 L340,167 L348,165
    L356,169 L364,166 L372,170 L380,167 L390,171 L402,169
    L412,173 L420,171 L425,167
    L428,157 L431,167 L434,156 L438,166 L442,154 L446,164
    L450,152 L454,162 L458,150 L462,160 L466,148 L470,158
    L474,146 L478,156 L482,144 L486,154 L490,142 L494,152
    L498,140 L502,150 L506,138 L510,148 L514,136 L518,146
    L522,134 L526,144 L530,132 L534,142 L538,130 L542,140
    L546,128 L550,138 L554,126 L558,136 L562,124 L566,134
    L570,124 L574,132 L578,122 L582,132 L586,122 L590,130
    L594,120 L598,130 L602,122 L606,132 L610,126 L614,136
    L618,130 L622,140 L628,134 L634,144 L640,138 L646,149
    L652,142 L658,154 L665,148 L672,160 L680,154 L688,166
    L698,172 L712,180 L730,188 L752,196 L776,204 L804,212
    L836,219 L870,226 L908,232 L950,238 L996,243
    L1045,248 L1096,253 L1148,258 L1202,262 L1256,266
    L1308,270 L1356,273 L1400,276 L1432,278 L1440,279
    L1440,320 Z
  "/>
</svg>
